<svg width="602" height="135" viewBox="0 0 602 135" fill="none" xmlns="http://www.w3.org/2000/svg">
<path fill-rule="evenodd" clip-rule="evenodd" d="M91 52.4943C91 64.9317 80.9284 75 68.4915 75C56.0754 75 46 64.9317 46 52.4943C46 40.0815 56.0754 30 68.4915 30C80.9284 30 91 40.0815 91 52.4943Z" fill="#FA4616"/>
<path fill-rule="evenodd" clip-rule="evenodd" d="M0 105H98L49 15L0 105Z" fill="#0047BB"/>
<path fill-rule="evenodd" clip-rule="evenodd" d="M58.4566 32.3613C51.0735 36.0524 46 43.6868 46 52.4951C46 64.9325 56.0754 75.0008 68.4915 75.0008C72.6827 75.0008 76.6052 73.8573 79.9642 71.8652L58.4566 32.3613Z" fill="#001A72"/>
<path d="M225.751 106C216.129 106 208.096 103.793 201.652 99.3798C195.296 94.9663 191.412 88.8316 190 80.9756H205.227C206.375 85.036 208.582 88.0372 211.848 89.9791C215.114 91.8327 219.837 92.7596 226.016 92.7596C230.871 92.7596 234.667 92.0534 237.403 90.6411C240.228 89.1405 241.64 87.0662 241.64 84.4181C241.64 82.6527 240.934 81.1963 239.522 80.0488C238.198 78.9013 236.609 78.0627 234.755 77.5331C232.989 77.0035 230.076 76.2532 226.016 75.2822C224.515 74.9292 223.368 74.6643 222.573 74.4878C211.715 71.8397 204.168 69.1034 199.931 66.2787C195.694 63.3659 193.575 58.9965 193.575 53.1707C193.575 45.9326 196.356 40.2834 201.917 36.223C207.567 32.0743 215.026 30 224.294 30C233.387 30 240.581 31.9861 245.877 35.9582C251.262 39.842 254.661 45.2265 256.073 52.1115H240.978C238.86 46.1974 233.21 43.2404 224.03 43.2404C219.263 43.2404 215.511 43.9907 212.775 45.4913C210.038 46.9919 208.67 49.0221 208.67 51.5819C208.67 53.7886 209.773 55.4216 211.98 56.4808C214.187 57.4518 218.821 58.7758 225.883 60.453C230.474 61.5122 234.093 62.439 236.741 63.2334C239.478 63.9396 242.302 64.9106 245.215 66.1463C248.128 67.3821 250.335 68.7062 251.836 70.1185C253.337 71.5308 254.572 73.2962 255.543 75.4146C256.515 77.4448 257 79.8722 257 82.6969C257 90.1998 254.043 95.9814 248.128 100.042C242.302 104.014 234.843 106 225.751 106Z" fill="#101820"/>
<path d="M167.041 30H182V105H167.041V92.23C161.216 101.41 152.744 106 141.624 106C131.828 106 123.753 102.469 117.399 95.4077C111.133 88.2578 108 79.1219 108 68C108 56.9663 111.177 47.8746 117.531 40.7247C123.886 33.5749 131.872 30 141.492 30C152.612 30 161.128 34.6783 167.041 44.0348V30ZM144.801 91.7003C151.244 91.7003 156.583 89.4936 160.819 85.0801C165.055 80.6667 167.174 74.9733 167.174 68C167.174 61.115 165.055 55.4657 160.819 51.0523C156.583 46.5505 151.244 44.2997 144.801 44.2997C138.447 44.2997 133.24 46.5064 129.181 50.9199C125.121 55.3333 123.091 61.0267 123.091 68C123.091 74.9733 125.121 80.6667 129.181 85.0801C133.24 89.4936 138.447 91.7003 144.801 91.7003Z" fill="#101820"/>
<path d="M586 30H602L555 135H539L556.219 94.835L527 30H544L565 78L586 30Z" fill="#101820"/>
<path d="M515.348 88.573L518 100.719C512.077 104.24 505.137 106 497.18 106C489.312 106 482.903 103.492 477.952 98.4747C473.001 93.4579 471 86.3549 471 76.7612V44H457V30H471V15L486 10V30H518V44H486V75.7487C486 86.6625 490.285 92.1376 499.833 92.1376C503.369 92.1376 508.541 90.9494 515.348 88.573Z" fill="#101820"/>
<path d="M432 105V30H447V105H432Z" fill="#101820"/>
<path d="M417.587 30C419.459 30 420.93 30.1335 422 30.4004V45.7473C420.217 45.5694 418.701 45.4804 417.453 45.4804C410.142 45.4804 404.257 47.6601 399.799 52.0196C395.341 56.29 393.112 62.7402 393.112 71.3701L393 105H378L378.112 30H393.112L393 46C397.636 35.2349 405.907 30 417.587 30Z" fill="#101820"/>
<path d="M353 105V30H368V105H353Z" fill="#101820"/>
<path d="M367.286 2.71428C365.476 0.904761 363.193 0 360.435 0C357.764 0 355.524 0.904761 353.714 2.71428C351.905 4.43333 351 6.65 351 9.36429C351 12.1691 351.905 14.4762 353.714 16.2857C355.524 18.0952 357.764 19 360.435 19C363.193 19 365.476 18.0952 367.286 16.2857C369.095 14.4762 370 12.1691 370 9.36429C370 6.65 369.095 4.43333 367.286 2.71428Z" fill="#101820"/>
<path d="M446.286 2.71428C444.476 0.904761 442.193 0 439.435 0C436.764 0 434.524 0.904761 432.714 2.71428C430.905 4.43333 430 6.65 430 9.36429C430 12.1691 430.905 14.4762 432.714 16.2857C434.524 18.0952 436.764 19 439.435 19C442.193 19 444.476 18.0952 446.286 16.2857C448.095 14.4762 449 12.1691 449 9.36429C449 6.65 448.095 4.43333 446.286 2.71428Z" fill="#101820"/>
<path d="M309.682 30C319.302 30 327.288 33.5911 333.643 40.7734C339.997 47.9557 343.174 57.0887 343.174 68.1724C343.174 79.3448 339.997 88.5222 333.643 95.7044C327.377 102.798 319.346 106.345 309.55 106.345C298.518 106.345 289.955 101.282 284.043 92.0602V135H269.043L269 30H284L284.043 44.0602C289.955 34.6612 298.562 30 309.682 30ZM306.373 91.9803C312.727 91.9803 317.934 89.7636 321.993 85.3301C326.053 80.8966 328.083 75.1773 328.083 68.1724C328.083 61.1675 326.053 55.4483 321.993 51.0148C317.934 46.5813 312.727 44.3645 306.373 44.3645C299.93 44.3645 294.591 46.6256 290.355 51.1478C286.119 55.5813 284 61.2562 284 68.1724C284 75.1773 286.119 80.8966 290.355 85.3301C294.591 89.7636 299.93 91.9803 306.373 91.9803Z" fill="#101820"/>
</svg>
