<svg width="24" height="24" viewBox="0 0 24 24" fill="none" xmlns="http://www.w3.org/2000/svg">
<path d="M7.4578 21.5704C7.02068 21.2826 6.63549 20.926 6.31089 20.5179C5.956 20.0926 5.6314 19.6458 5.32844 19.1861C4.62299 18.1593 4.06901 17.0381 3.68382 15.8567C3.22073 14.4819 3 13.1631 3 11.8742C3 10.4351 3.31161 9.18063 3.92618 8.1281C4.37629 7.30326 5.05145 6.6159 5.86511 6.13044C6.64847 5.64499 7.56167 5.37864 8.48786 5.36145C8.81245 5.36145 9.16302 5.40871 9.5309 5.49893C9.79923 5.57196 10.1195 5.69225 10.5177 5.83831C11.024 6.03163 11.301 6.14763 11.3962 6.1777C11.6906 6.2894 11.9416 6.33236 12.1363 6.33236C12.2835 6.33236 12.4956 6.2851 12.7336 6.21207C12.8678 6.16481 13.1231 6.08319 13.4823 5.92853C13.8372 5.79965 14.1229 5.69225 14.3436 5.60633C14.6855 5.50752 15.0144 5.41301 15.3131 5.37005C15.6723 5.3142 16.0315 5.29701 16.3734 5.32279C17.0269 5.37004 17.6285 5.50752 18.1652 5.70943C19.1044 6.08319 19.8661 6.67174 20.433 7.50518C20.195 7.65124 19.9699 7.82308 19.7622 8.00781C19.3121 8.40305 18.9312 8.86702 18.6283 9.38684C18.2301 10.0914 18.0267 10.8905 18.0353 11.6938C18.0483 12.6862 18.3037 13.5583 18.8101 14.3144C19.1693 14.8643 19.6453 15.3369 20.2253 15.7192C20.5109 15.9125 20.762 16.0457 21 16.1316C20.8875 16.4753 20.7663 16.8104 20.6278 17.1412C20.3075 17.8801 19.9267 18.5889 19.4722 19.2591C19.0741 19.8348 18.7581 20.2687 18.5201 20.5522C18.1479 20.9904 17.793 21.3212 17.4294 21.5575C17.0313 21.8196 16.5682 21.957 16.0878 21.957C15.7632 21.9699 15.4429 21.9313 15.1356 21.841C14.8673 21.7551 14.6033 21.6563 14.3436 21.5446C14.0753 21.42 13.7939 21.3169 13.5083 21.2353C13.1577 21.1451 12.7985 21.0978 12.435 21.1021C12.0671 21.1021 11.7079 21.1494 11.366 21.2353C11.0803 21.3169 10.8033 21.4157 10.5307 21.5317C10.1411 21.6907 9.89012 21.7981 9.74297 21.841C9.44434 21.927 9.13705 21.9828 8.82977 22C8.34936 22 7.90358 21.8625 7.4578 21.5876V21.5704ZM13.781 4.6612C13.1534 4.97051 12.5561 5.10369 11.9589 5.06073C11.868 4.46788 11.9589 3.86214 12.2099 3.19625C12.4306 2.62917 12.7249 2.11365 13.1318 1.65827C13.5559 1.18141 14.0623 0.786174 14.6379 0.502636C15.2481 0.193321 15.8281 0.0257762 16.3821 0C16.4556 0.622925 16.3821 1.23726 16.1527 1.89455C15.9406 2.47881 15.629 3.02011 15.2308 3.50557C14.8283 3.98243 14.3306 4.37766 13.768 4.6612H13.781Z" fill="black"/>
</svg>
