<svg width="24" height="24" viewBox="0 0 24 24" fill="none" xmlns="http://www.w3.org/2000/svg">
<path d="M12.2041 5.86667C14.1202 5.86667 15.4127 6.67779 16.1497 7.35557L19.0295 4.6C17.2608 2.98889 14.9592 2 12.2041 2C8.21317 2 4.76646 4.24445 3.08846 7.51112L6.38778 10.0222C7.21544 7.61112 9.50569 5.86667 12.2041 5.86667Z" fill="#EA4335"/>
<path d="M22 12.2222C22 11.4 21.932 10.8 21.7846 10.1778H12.2041V13.8889H17.8277C17.7143 14.8111 17.102 16.2 15.7415 17.1334L18.9615 19.5778C20.8889 17.8334 22 15.2667 22 12.2222Z" fill="#4285F4"/>
<path d="M6.39909 13.9778C6.18367 13.3556 6.05896 12.6889 6.05896 12C6.05896 11.3111 6.1837 10.6445 6.38778 10.0222L3.08846 7.51112C2.39685 8.86668 2 10.3889 2 12C2 13.6111 2.39683 15.1333 3.08843 16.4889L6.39909 13.9778Z" fill="#FBBC05"/>
<path d="M12.2041 22C14.9592 22 17.2721 21.1111 18.9615 19.5778L15.7415 17.1334C14.8798 17.7222 13.7233 18.1333 12.2041 18.1333C9.50564 18.1333 7.21542 16.3889 6.39909 13.9778L3.09975 16.4889C4.77775 19.7556 8.21313 22 12.2041 22Z" fill="#34A853"/>
</svg>
