<svg width="24" height="24" viewBox="0 0 24 24" fill="none" xmlns="http://www.w3.org/2000/svg">
<rect width="24" height="24" fill="#4D44D1"/>
<path id="&#226;&#134;&#179; Background" d="M1.5 12.08C1.5 7.32824 1.5 4.95236 2.97618 3.47618C4.45236 2 6.82824 2 11.58 2H12.42C17.1718 2 19.5476 2 21.0238 3.47618C22.5 4.95236 22.5 7.32824 22.5 12.08V12.92C22.5 17.6718 22.5 20.0476 21.0238 21.5238C19.5476 23 17.1718 23 12.42 23H11.58C6.82824 23 4.45236 23 2.97618 21.5238C1.5 20.0476 1.5 17.6718 1.5 12.92V12.08Z" fill="white"/>
<path id="&#226;&#134;&#179; Foreground" d="M12.6729 17.1299C7.88669 17.1299 5.15672 13.8487 5.04297 8.38867H7.44046C7.51921 12.3962 9.28668 14.0937 10.6867 14.4437V8.38867L12.9442 8.38867V11.8449C14.3267 11.6962 15.7791 10.1212 16.2691 8.38867H18.5266C18.1504 10.5237 16.5754 12.0987 15.4554 12.7462C16.5754 13.2712 18.3692 14.6449 19.0517 17.1299H16.5666C16.0329 15.4674 14.703 14.1812 12.9442 14.0062V17.1299H12.6729Z" fill="#4D44D1"/>
</svg>
